<svg id="Layer_1" data-name="Layer 1" xmlns="http://www.w3.org/2000/svg" viewBox="0 0 190.19 226.12"><defs><style>.cls-1,.cls-5{fill:#14b9a5;}.cls-1,.cls-2,.cls-3,.cls-6{stroke:#010101;stroke-linecap:round;stroke-linejoin:round;}.cls-1,.cls-2,.cls-3{stroke-width:5px;}.cls-2,.cls-6{fill:none;}.cls-3,.cls-4{fill:#010101;}</style></defs><title>dog</title><polyline class="cls-1" points="120.9 198.16 94.59 223.62 67.58 198.16"/><path class="cls-1" d="M223.78,293.33h33a14.55,14.55,0,1,0,21.91-9.39,14.62,14.62,0,1,0-21.91-9.38H240.07" transform="translate(-97.93 -163.37)"/><path class="cls-1" d="M162.27,293.33H129.22a14.55,14.55,0,1,1-21.92-9.39,14.62,14.62,0,1,1,21.92-9.38H146" transform="translate(-97.93 -163.37)"/><path class="cls-2" d="M246.6,204.66v44.83a51.37,51.37,0,0,1-51.37,51.38h-3.56a51.38,51.38,0,0,1-51.38-51.38V204.66" transform="translate(-97.93 -163.37)"/><path class="cls-2" d="M247.52,231.53s11.9,25.51,28.4,11.06c13.55-11.86-1.92-43.35-10.74-54.85s-23-6.79-23-6.79-16.95-15.08-47.8-15.08h-1.85c-30.85,0-47.8,15.08-47.8,15.08s-14.18-4.72-23,6.79-24.29,43-10.74,54.85c16.5,14.45,28.4-11.06,28.4-11.06" transform="translate(-97.93 -163.37)"/><line class="cls-2" x1="69.29" y1="54.41" x2="69.29" y2="72.71"/><line class="cls-2" x1="120.9" y1="54.41" x2="120.9" y2="72.71"/><path class="cls-3" d="M195.79,278.7c3.4-.58,9.38-1.64,8.37-6.31-1.39-6.45-21.39-5.5-21.54.71C182.52,277.38,186.57,280.28,195.79,278.7Z" transform="translate(-97.93 -163.37)"/><line class="cls-3" x1="95.52" y1="111.6" x2="95.52" y2="126.67"/><path class="cls-4" d="M115.24,321a47.34,47.34,0,0,1,7.74-.6c4,0,6.91.93,8.77,2.6a8.4,8.4,0,0,1,2.73,6.53,9.18,9.18,0,0,1-2.41,6.68c-2.13,2.27-5.61,3.43-9.55,3.43a14,14,0,0,1-3.25-.27v12.52h-4Zm4,15.07a13.62,13.62,0,0,0,3.34.33c4.87,0,7.84-2.37,7.84-6.68,0-4.13-2.92-6.12-7.38-6.12a17.36,17.36,0,0,0-3.8.32Z" transform="translate(-97.93 -163.37)"/><path class="cls-4" d="M153.31,337.18H141.16v11.27H154.7v3.39H137.13V320.58H154V324H141.16v9.87h12.15Z" transform="translate(-97.93 -163.37)"/><path class="cls-4" d="M163.83,324h-9.5v-3.43h23.14V324h-9.55v27.83h-4.09Z" transform="translate(-97.93 -163.37)"/><path class="cls-5" d="M177.33,346.92a14.32,14.32,0,0,0,7.23,2c4.13,0,6.54-2.18,6.54-5.33,0-2.92-1.67-4.59-5.89-6.22-5.1-1.8-8.25-4.45-8.25-8.85,0-4.87,4-8.49,10.11-8.49A14.21,14.21,0,0,1,194,321.6l-1.12,3.29a12.5,12.5,0,0,0-5.93-1.48c-4.27,0-5.89,2.55-5.89,4.68,0,2.93,1.9,4.36,6.21,6,5.29,2,8,4.59,8,9.18,0,4.83-3.57,9-10.95,9a16.17,16.17,0,0,1-8-2Z" transform="translate(-97.93 -163.37)"/><path class="cls-5" d="M202,320.58v13.08h15.12V320.58h4.08v31.26h-4.08V337.18H202v14.66h-4V320.58Z" transform="translate(-97.93 -163.37)"/><path class="cls-5" d="M252.13,335.88c0,10.76-6.54,16.47-14.52,16.47-8.25,0-14.05-6.4-14.05-15.86,0-9.93,6.17-16.42,14.52-16.42C246.61,320.07,252.13,326.61,252.13,335.88Zm-24.26.51c0,6.68,3.62,12.66,10,12.66s10-5.89,10-13c0-6.21-3.25-12.71-10-12.71S227.87,329.53,227.87,336.39Z" transform="translate(-97.93 -163.37)"/><path class="cls-5" d="M254.58,321a47.38,47.38,0,0,1,7.75-.6c4,0,6.91.93,8.76,2.6a8.37,8.37,0,0,1,2.74,6.53,9.23,9.23,0,0,1-2.41,6.68c-2.14,2.27-5.62,3.43-9.56,3.43a14,14,0,0,1-3.24-.27v12.52h-4Zm4,15.07a13.57,13.57,0,0,0,3.34.33c4.87,0,7.83-2.37,7.83-6.68,0-4.13-2.92-6.12-7.37-6.12a17.3,17.3,0,0,0-3.8.32Z" transform="translate(-97.93 -163.37)"/><path class="cls-6" d="M193,283.32" transform="translate(-97.93 -163.37)"/><line class="cls-2" x1="184.56" y1="198.16" x2="5.63" y2="198.16"/></svg>